# xmcd
#
# Track frame offsets:
#	150
#	12010
#	21099
#	26525
#	32056
#	36855
#	45611
#	50320
#	61210
#	66402
#	73800
#	84484
#	91132
#	101659
#	114445
#	123211
#	129685
#	139195
#	150238
#	154984
#	162888
#	180543
#	190255
#	199250
#	204944
#	212627
#	222604
#	230657
#	236173
#	250881
#	258932
#	263650
#	271999
#	277293
#	283704
#	291763
#	301759
#	307435
#	319982
#	325637
#
# Disc length: 4432 seconds
#
# Revision: 0
# Processed by: cddbd v1.5.1PL0 Copyright (c) Steve Scherf et al.
# Submitted via: EasyCDDAExtractor 8.2.1.1
#
DISCID=51114e28
DTITLE=Various Artist - levyn nimi
DYEAR=1900
DGENRE=
TTITLE0=Mieskvartetti Delicato - Aamurukous
TTITLE1=Mieskvartetti Delicato - Pieni Matkalainen
TTITLE2=Mieskvartetti Delicato - Joululaulu
TTITLE3=Mieskvartetti Delicato - Ahkeruuss on ilomme
TTITLE4=Mieskvartetti Delicato - Työ ja leikki
TTITLE5=Mieskvartetti Delicato - Pajaleikki
TTITLE6=Mieskvartetti Delicato - Pieni Nokikolari
TTITLE7=Mieskvartetti Delicato - Nasulassa
TTITLE8=Mieskvartetti Delicato - Hopoti hoi
TTITLE9=Mieskvartetti Delicato - Uutispuuro
TTITLE10=Mieskvartetti Delicato - Äiti leipoo
TTITLE11=Mieskvartetti Delicato - Orvokkini
TTITLE12=Mieskvartetti Delicato - Kotini
TTITLE13=Mieskvartetti Delicato - Laulu Suomessa
TTITLE14=Mieskvartetti Delicato - Kansalaislaulu
TTITLE15=Mieskvartetti Delicato - Syyslaulu
TTITLE16=Mieskvartetti Delicato - Pikku Inkerin laulu
TTITLE17=Mieskvartetti Delicato - Tonttujen jouluyö
TTITLE18=Mieskvartetti Delicato - Joulupuu on rakennettu
TTITLE19=Mieskvartetti Delicato - Jouluyönä
TTITLE20=Mieskvartetti Delicato - Vuosi vanha
TTITLE21=Mieskvartetti Delicato - Tähtilaulu
TTITLE22=Mieskvartetti Delicato - Körö körö kirkkoon
TTITLE23=Mieskvartetti Delicato - Talvihalla
TTITLE24=Mieskvartetti Delicato - Pyry
TTITLE25=Mieskvartetti Delicato - Orvon huokaus
TTITLE26=Mieskvartetti Delicato - Laulu pajupensaasta
TTITLE27=Mieskvartetti Delicato - Kevätpäivänä
TTITLE28=Mieskvaartetti Delicato - Suvivirsi
TTITLE29=Mieskvartetti Delicato - Retkeilymarssi
TTITLE30=Mieskvartetti Delicato - Harakka
TTITLE31=Mieskvartetti Delicato - Hämähäkki
TTITLE32=Mieskvartetti Delicato - Paimenlaulu
TTITLE33=Mieskvartetti Delicato - Saunavihdat
TTITLE34=Mieskvartetti Delicato - Mä olen niin pienoinen
TTITLE35=Mieskvartetti Delicato - En oo liian pieni
TTITLE36=Mieskvartetti Delicato - Kotonansa
TTITLE37=Mieskvartetti Delicato - Maaan korvessa kulkevi lapsosen tie
TTITLE38=Mieskvartetti Delicato - Jumala suojelee
TTITLE39=Mieskvartetti Delicato - Levolle lasken luojani
EXTD=
EXTT0=
EXTT1=
EXTT2=
EXTT3=
EXTT4=
EXTT5=
EXTT6=
EXTT7=
EXTT8=
EXTT9=
EXTT10=
EXTT11=
EXTT12=
EXTT13=
EXTT14=
EXTT15=
EXTT16=
EXTT17=
EXTT18=
EXTT19=
EXTT20=
EXTT21=
EXTT22=
EXTT23=
EXTT24=
EXTT25=
EXTT26=
EXTT27=
EXTT28=
EXTT29=
EXTT30=
EXTT31=
EXTT32=
EXTT33=
EXTT34=
EXTT35=
EXTT36=
EXTT37=
EXTT38=
EXTT39=
PLAYORDER=
